<svg xmlns="http://www.w3.org/2000/svg" width="1080" height="1080" viewBox="0 0 1080 1080">
    <rect width="1080" height="1080" fill="#FFD6F1" />
    <g transform="translate(180, 130)">
        <g transform="translate(-140 -100)">
            <path
                d="M785.9 275.626C725.097 247.898 669.212 239.882 661.077 257.721L611.495 366.449C635.241 404.755 712.524 478.465 831.681 466.859L881.263 358.13C889.398 340.292 846.702 303.353 785.9 275.626Z"
                fill="#000000" stroke="black" stroke-width="8" />
            <path
                d="M881.497 358.237C873.362 376.076 817.477 368.06 756.674 340.332C695.871 312.605 653.176 275.666 661.311 257.827C669.445 239.989 725.33 248.005 786.133 275.732C846.936 303.46 889.632 340.398 881.497 358.237Z"
                fill="black" />
            <path
                d="M168.509 667.263C175.832 606.857 230.421 582.109 256.8 577.286C290.206 612.486 334.446 699.85 244.153 767.703C232.038 760.529 159.354 742.771 168.509 667.263Z"
                fill="#FFFFFF" stroke="black" stroke-width="8" />
            <path
                d="M604.34 791.275C737.081 797.037 736.069 677.143 736.069 677.143C698.338 671.111 619.168 685.492 604.34 791.275Z"
                fill="#FFFFFF" stroke="black" stroke-width="8" />
            <path
                d="M256.592 577.74L474.708 564.611C504.256 562.832 530.407 544.882 542.689 517.949L611.728 366.555C635.475 404.861 712.757 478.571 831.914 466.965L735.861 677.597C698.13 671.565 618.96 685.946 604.133 791.729C471.392 785.967 253.638 773.896 243.946 768.157C334.238 700.305 289.999 612.941 256.592 577.74Z"
                fill="#D9D9D9" stroke="black" stroke-width="8" />
        </g>
        <g transform="translate(590, 250)">
            <path
                d="M29.7081 93.5393C40.2096 98.6588 52.7676 95.2633 63.0806 89.1762C73.5261 83.0109 82.9144 73.3983 87.5508 63.8877C96.9893 44.5267 88.9456 21.1801 69.5846 11.7416C50.2236 2.30309 26.877 10.3469 17.4385 29.7079C12.8021 39.2185 11.0122 52.5353 12.5893 64.5616C14.1464 76.4354 19.2067 88.4199 29.7081 93.5393Z"
                fill="#B4E847" stroke="black" stroke-width="8" />
            <ellipse cx="37.7803" cy="43.6872" rx="12.5" ry="9.5" transform="rotate(74.2525 37.7803 43.6872)" />
            <ellipse rx="12.5" ry="9.5" transform="matrix(-0.925382 0.379036 0.379036 0.925382 64.7465 56.8328)" />
            <circle cx="38.1128" cy="39.7865" r="2" transform="rotate(25.9893 38.1128 39.7865)" fill="#D9D9D9" />
            <circle cx="63.2807" cy="52.056" r="2" transform="rotate(25.9893 63.2807 52.056)" fill="#D9D9D9" />
            <circle cx="41.1855" cy="65.1851" r="1.74906" transform="rotate(17.0548 41.1855 65.1851)" />
            <circle cx="46.7598" cy="66.8951" r="1.74906" transform="rotate(17.0548 46.7598 66.8951)" />
        </g>
    </g>
    <g transform="translate(225, 300)">
        <path
            d="M74.5637 308.897L292.679 295.768C322.227 293.989 348.379 276.04 360.661 249.106L429.699 97.7126C453.446 136.018 530.729 209.728 649.886 198.122L553.833 408.755C516.101 402.722 436.932 417.103 422.104 522.886C289.363 517.124 71.6097 505.053 61.9172 499.314C152.21 431.462 107.97 344.098 74.5637 308.897Z"
            stroke="black" fill-opacity="0" stroke-width="8" />
        <path
            d="M428.496 100L410.996 133.5C478.196 225.9 585.663 240.667 630.996 236.5L648.496 198.5C532.096 209.3 453.329 137.333 428.496 100Z"
            fill="#FF8A01" stroke="black" />
        <path
            d="M391.996 178L374.496 217.5C441.696 309.9 545.163 327.167 590.496 323L611.996 276.5C495.596 287.3 416.829 215.333 391.996 178Z"
            fill="#B4E847" stroke="black" />
        <path
            d="M370.996 221L353.496 260.5C420.696 352.9 524.663 370.667 569.996 366.5L590.996 319.5C474.596 330.3 395.829 258.333 370.996 221Z"
            fill="#98C1FF" stroke="black" />
        <path
            d="M412.033 133L393.496 178C460.837 276.381 565.067 281.936 610.496 277.5L632.496 237.875C515.851 249.374 436.919 172.75 412.033 133Z"
            fill="#FDED5E" stroke="black" />
        <path
            d="M74.0887 308.74L120.496 305.947C153.902 341.147 200.789 437.209 110.496 505.061C110.496 505.061 71.1348 504.896 61.4422 499.157C151.735 431.305 107.495 343.941 74.0887 308.74Z"
            fill="#FB4A4A" />
        <path
            d="M122.772 306.23L170.872 303.335C205.497 339.819 254.093 439.385 160.507 509.713C160.507 509.713 119.71 509.542 109.664 503.594C203.25 433.266 157.396 342.715 122.772 306.23Z"
            fill="#FF8A01" />
        <path
            d="M176.287 306.556L224.387 303.66C259.012 340.145 307.609 439.711 214.023 510.038C214.023 510.038 173.225 509.867 163.179 503.919C256.765 433.591 210.912 343.04 176.287 306.556Z"
            fill="#FDED5E" />
        <path
            d="M220.921 295.366L274.496 292.141C313.062 332.778 373.394 440.453 269.155 518.786C269.155 518.786 223.714 518.595 212.524 511.97C316.763 433.637 259.487 336.004 220.921 295.366Z"
            fill="#B4E847" />
        <path
            d="M280.743 296.895L322.996 288C378.996 322.5 413.496 458 328.978 520.315C328.978 520.315 283.537 520.125 272.347 513.499C376.586 435.166 319.309 337.533 280.743 296.895Z"
            fill="#98C1FF" />
        <path
            d="M412.604 134C436.351 172.305 513.634 246.015 632.79 234.409L553.357 408.597C515.626 402.565 436.456 416.946 421.629 522.729C288.888 516.967 71.1342 504.896 61.4417 499.157C151.734 431.305 107.494 343.941 74.0882 308.74L326.496 291C368.496 317.5 421.629 451.5 334.996 518.659M392.995 177C416.742 215.305 494.025 289.015 613.182 277.409M374.496 217.568C398.242 255.874 473.007 335.106 592.163 323.5M353.55 263.5C377.296 301.805 454.579 375.515 573.736 363.909M120.496 305.947C153.902 341.147 200.788 437.209 110.496 505.061M172.996 302.786C206.402 337.987 255.288 441.145 164.996 508.998M220.496 298.45C265.496 334.781 306.788 444.358 216.496 512.21M275.996 294.549C320.996 330.881 366.288 447.729 275.996 515.582"
            stroke="black" fill-opacity="0" stroke-width="8" />
    </g>
    <!-- <g transform="translate(275, 388)">
        <path
            d="M43.5928 249.741L261.708 236.611C291.257 234.833 317.408 216.883 329.69 189.949L398.729 38.556M58.8361 291.5L286.729 281.5C316.278 279.722 340.718 246.674 353.001 219.741L421.001 62.5002M60.348 330L300.501 330C348.501 323.5 355.851 297.934 368.133 271L455.024 80.3154M43.5928 373.394L329.69 382.5C359.239 380.722 381.501 362 404.001 311L499.862 96.5002M546.404 108.966L455.024 322.233M7.94603 410.158C17.6386 415.896 235.392 427.967 368.133 433.73C382.961 327.947 462.13 313.566 499.862 319.598L595.915 108.966C476.758 120.572 399.475 46.8616 375.728 8.5558L306.755 159.805C294.438 186.815 268.178 204.783 238.542 206.481L22.1524 218.877C21.3025 218.925 20.8735 219.925 21.4492 220.552C54.669 256.732 96.9391 343.281 7.94603 410.158Z"
            stroke="#000" fill-opacity="0" stroke-width="8" />
    </g> -->
</svg>