<svg xmlns="http://www.w3.org/2000/svg" width="1080" height="1080" viewBox="0 0 1080 1080">
    <rect width="1080" height="1080" fill="#FFD6F1" />

    <!-- <g transform="translate(-800,-500)">
        <path d=" M1222.76 840.56C1201.95 876.491 1159.78 939.711 1157.68 905.141C1156.71 889.119 1153.92 880.59 1149.1
        877.937C1146.7 878.039 1143.92 878.048 1140.92 877.928C1132.6 881.021 1121.07 891.81 1105.94 907.315C1072.66
        941.412 1094.33 980.187 1041.65 1001.01C1006.22 1015.01 953.564 1041.33 934.676 1060.04C936.394 1067.48 937.024
        1074.41 936.972 1079.66C975.716 1089.45 847.017 1176.73 811.562 1159.08C776.107 1141.44 767.058 1222.41 701.087
        1214.4C635.115 1206.38 601.825 1290.29 569.345 1195.68C536.865 1101.07 471.767 1117.42 457.802 1051.57C443.836
        985.716 401.408 949.297 385.39 991.578C367.675 985.284 327.987 952.23 310.957 870.359C293.928 788.489 215.06
        753.118 177.754 745.667C149.197 744.892 97.1284 732.418 117.312 688.717C142.542 634.092 231.402 624.923 250.409
        563.872C269.417 502.821 288.48 408.721 345.399 379.747C402.318 350.773 459.884 350.432 451.835 319.941C445.395
        295.549 528.675 261.611 571.121 247.691C627.626 237.898 746.608 203.005 770.489 141.779C800.339 65.2466 889.068
        93.8699 901.708 133.923C914.348 173.975 934.003 279.45 989.291 253.613C1044.58 227.776 1101.37 324.675 1081.34
        370.845C1061.31 417.015 1155.35 499.015 1187.77 488.782C1220.19 478.549 1251.6 551.479 1237.89 577.826C1224.19
        604.172 1324.41 596.135 1321.07 637.038C1317.72 677.941 1344.97 734.358 1310.68 751.993C1283.26 766.101 1240.64
        816.916 1222.76 840.56Z" fill="#E8C2FF" />
        <path
            d="M936.972 1079.66C898.228 1069.86 988.978 1021.82 1041.65 1001.01C1094.33 980.187 1072.66 941.412 1105.94 907.315C1126.88 885.86 1140.91 873.435 1149.1 877.937M936.972 1079.66C975.716 1089.45 847.017 1176.73 811.562 1159.08M936.972 1079.66C937.154 1061.22 928.938 1022.07 894.622 1013.02M811.562 1159.08C776.107 1141.44 767.058 1222.41 701.087 1214.4M811.562 1159.08L776.964 1102.05M701.087 1214.4C635.115 1206.38 601.825 1290.29 569.345 1195.68C536.865 1101.07 471.767 1117.42 457.802 1051.57C443.836 985.716 401.408 949.297 385.39 991.578C367.675 985.284 327.987 952.23 310.957 870.359C293.928 788.489 215.06 753.118 177.754 745.667C149.197 744.892 97.1285 732.418 117.312 688.717C142.542 634.092 231.402 624.923 250.409 563.872C269.417 502.821 288.48 408.721 345.399 379.747C402.318 350.773 459.884 350.432 451.835 319.941C445.395 295.549 528.675 261.611 571.121 247.691C627.626 237.898 746.608 203.005 770.489 141.779C800.339 65.2466 889.068 93.8699 901.708 133.923C914.348 173.975 934.003 279.45 989.291 253.613C1044.58 227.776 1101.37 324.675 1081.34 370.845C1061.31 417.015 1155.35 499.015 1187.77 488.782C1220.19 478.549 1251.6 551.479 1237.89 577.826C1224.19 604.172 1324.41 596.135 1321.07 637.038C1317.72 677.941 1344.97 734.358 1310.68 751.993C1283.26 766.101 1240.64 816.916 1222.76 840.56C1201.95 876.491 1159.78 939.711 1157.68 905.141C1156.71 889.119 1153.92 880.59 1149.1 877.937M701.087 1214.4L705.756 1124.53M1149.1 877.937C1131.85 878.67 1095.61 874.605 1088.63 852.481"
            stroke="#B794CC" fill-opacity="0" stroke-width="8" />
        <path
            d="M718.994 1037.83C715.45 1054.01 697.362 1097.64 653.361 1142.75C598.361 1199.14 578.093 1027.62 608.369 1012.14C513.886 950.477 370.7 839.373 334.731 706.437C305.575 708.615 242.779 708.897 224.844 692.602C206.91 676.307 289.626 630.936 333.225 610.288C376.556 445.847 642.56 301.577 766.117 280.205C787.731 244.585 835.483 179.281 853.575 203.027C871.667 226.773 863.875 279.808 857.718 303.356C946.532 360.094 1080.35 491.531 1119.94 622.372C1156.02 637.427 1222.95 675.523 1202.03 707.467C1181.12 739.411 1131.76 736.57 1109.7 731.157C1044.54 833.164 905.6 989.385 718.994 1037.83Z"
            fill="#FFD6F1" />
        <path
            d="M666.915 1048.26C684.656 1045.75 702.022 1042.24 718.994 1037.83M718.994 1037.83C715.45 1054.01 697.362 1097.64 653.361 1142.75C598.361 1199.14 578.093 1027.62 608.369 1012.14C513.886 950.477 370.7 839.373 334.731 706.437M718.994 1037.83C905.6 989.385 1044.54 833.164 1109.7 731.157M1109.7 731.157C1131.76 736.57 1181.12 739.411 1202.03 707.467C1222.95 675.523 1156.02 637.427 1119.94 622.372C1080.35 491.531 946.532 360.094 857.718 303.356M1109.7 731.157C1116.33 721.026 1119.03 706.583 1119.55 700.628M857.718 303.356C842.363 293.548 828.354 285.971 816.41 281.017C805.497 276.49 788.052 276.411 766.117 280.205M857.718 303.356C863.875 279.808 871.667 226.773 853.575 203.027C835.483 179.281 787.731 244.585 766.117 280.205M766.117 280.205C642.56 301.577 376.556 445.847 333.225 610.288M334.731 706.437C332.473 698.092 330.638 689.661 329.263 681.151C325.415 657.32 327.082 633.601 333.225 610.288M334.731 706.437C305.575 708.615 242.779 708.897 224.844 692.602C206.91 676.307 289.626 630.936 333.225 610.288"
            stroke="#E1BDCA" fill-opacity="0" stroke-width="8" />
    </g> -->

    <!-- <g transform="translate(-140,-260)">
        <path
            d="M361.609 834.4C113.609 788.8 69.9421 657.733 79.1088 597.9V537.9C79.1088 508.067 111.209 461.4 239.609 513.4C368.009 565.4 374.442 749.067 361.609 834.4Z"
            fill="#A5F7C6" stroke="white" stroke-width="2" />
        <path d="M362.5 833.5C334.5 760.167 239.2 605.2 82 572" stroke="white" stroke-width="2" fill-opacity="0" />
        <path
            d="M361.534 547.349C110.067 565.995 34.6525 450.245 28.3788 390.04L13.1947 331.993C5.6448 303.131 24.89 249.859 162.27 267.673C299.65 285.486 352.354 461.546 361.534 547.349Z"
            fill="#A5F7C6" stroke="white" stroke-width="2" />
        <path d="M362.168 546.253C316.521 482.393 185.106 356.588 24.6216 364.251" stroke="white" stroke-width="2"
            fill-opacity="0" />
        <path
            d="M316.844 414.967C94.9138 295.257 93.7028 157.113 120.839 103.004L139.304 45.9164C148.485 17.531 193.389 -16.9918 299.554 72.0001C405.719 160.992 355.316 337.724 316.844 414.967Z"
            fill="#A5F7C6" stroke="white" stroke-width="2" />
        <path d="M317.968 414.384C313.896 335.993 270.913 159.219 131.56 79.251" stroke="white" stroke-width="2"
            fill-opacity="0" />
        <path
            d="M421.931 463.847C292.298 247.563 361.828 128.186 412.797 95.5332L457.834 55.8894C480.228 36.1776 536.467 29.4386 582.272 160.177C628.077 290.915 494.463 417.098 421.931 463.847Z"
            fill="#A5F7C6" stroke="white" stroke-width="2" />
        <path d="M423.195 463.921C459.74 394.45 513.094 220.525 434.148 80.5903" stroke="white" stroke-width="2"
            fill-opacity="0" />
        <path
            d="M1097.45 939.763C1337.87 1015.8 1364.93 1151.27 1348.4 1209.5L1340.95 1269.04C1337.25 1298.64 1299.61 1340.96 1178.65 1273.43C1057.7 1205.89 1074.12 1022.84 1097.45 939.763Z"
            fill="#A5F7C6" stroke="white" stroke-width="2" />
        <path d="M1096.45 940.545C1115.13 1016.79 1190.46 1182.39 1342.32 1234.84" stroke="white" fill-opacity="0"
            stroke-width="2" />
        <path
            d="M951.379 1117.05C1203.17 1103.52 1276.22 1220.78 1281.27 1281.1L1295.27 1339.45C1302.23 1368.46 1281.9 1421.32 1144.91 1400.72C1007.92 1380.12 958.811 1203.02 951.379 1117.05Z"
            fill="#A5F7C6" stroke="white" stroke-width="2" />
        <path d="M950.722 1118.13C995.061 1182.91 1123.89 1311.36 1284.5 1306.96" stroke="white" fill-opacity="0"
            stroke-width="2" />
    </g> -->

    <!-- <g transform="translate(100,90)">
        <path fill-rule="evenodd" clip-rule="evenodd"
            d="M182.952 71.5976C191.989 71.5976 199.315 78.9529 199.315 88.0261C199.315 97.0993 185.99 113.953 182.952 113.953C179.914 113.953 166.589 97.0993 166.589 88.0261C166.589 78.9529 173.915 71.5976 182.952 71.5976ZM155.616 155.967C148.305 150.634 146.684 140.36 151.996 133.02C157.308 125.68 178.472 120.984 181.585 122.885C183.725 126.182 183.783 144.992 178.472 152.333C173.16 159.673 162.927 161.3 155.616 155.967ZM213.961 133.02C219.273 140.36 217.652 150.634 210.341 155.967C203.03 161.3 192.797 159.673 187.485 152.333C182.173 144.992 181.585 125.729 185.484 122.885C189.878 119.68 208.649 125.68 213.961 133.02ZM138.698 103.799C141.49 95.17 150.721 90.4476 159.316 93.2514C167.911 96.0552 181.585 113.953 178.472 118.818C175.252 123.848 157.798 127.304 149.203 124.5C140.609 121.696 135.905 112.428 138.698 103.799ZM206.576 93.2514C215.171 90.4476 224.402 95.17 227.195 103.799C229.987 112.428 225.284 121.696 216.689 124.5C208.095 127.304 188.393 121.537 187.485 118.818C185.484 112.823 197.982 96.0552 206.576 93.2514Z"
            fill="white" />
        <circle cx="182.513" cy="118.818" r="16.8952" fill="#FDFFBC" />
        <path fill-rule="evenodd" clip-rule="evenodd"
            d="M140.76 894.958C133.558 900.417 123.277 898.98 117.797 891.749C112.316 884.518 112.755 863.038 115.176 861.203C117.597 859.368 138.397 864.751 143.877 871.981C149.358 879.212 147.963 889.499 140.76 894.958ZM111.583 811.207C120.631 811.041 128.128 818.25 128.329 827.309C128.53 836.367 114.5 852.893 110.869 853.259C107.173 851.924 95.7642 836.968 95.5633 827.91C95.3627 818.851 102.535 811.373 111.583 811.207ZM78.946 864.738C70.2788 862.097 65.3644 852.93 67.9697 844.264C70.5748 835.597 79.7128 830.713 88.3798 833.354C97.047 835.996 109.152 850.993 107.762 855.614C106.197 860.822 87.613 867.38 78.946 864.738ZM156.578 842.564C159.565 851.127 155.06 860.467 146.517 863.424C137.974 866.381 116.265 860.378 115.808 854.62C115.335 848.666 127.158 835.369 135.701 832.412C144.244 829.455 153.591 834 156.578 842.564ZM108.853 891.971C103.697 899.397 93.4876 901.21 86.0498 896.02C78.6117 890.829 76.762 880.602 81.9178 873.176C87.0739 865.75 106.258 858.445 108.625 860.064C113.84 863.633 114.009 884.545 108.853 891.971Z"
            fill="white" />
        <circle cx="112.587" cy="857.061" r="16.8952" transform="rotate(142.84 112.587 857.061)" fill="#FDFFBC" />
        <path fill-rule="evenodd" clip-rule="evenodd"
            d="M68.9543 -9.10414e-05C82.7837 -9.10414e-05 93.9944 11.2557 93.9944 25.1405C93.9944 39.0252 73.603 64.8158 68.9543 64.8158C64.3055 64.8158 43.9142 39.0252 43.9142 25.1405C43.9142 11.2557 55.1249 -9.10414e-05 68.9543 -9.10414e-05ZM27.1219 129.111C15.9338 120.95 13.4536 105.228 21.5822 93.9948C29.7108 82.7617 62.0982 75.5755 66.8634 78.4853C70.1373 83.5308 70.2265 112.316 62.0982 123.549C53.9693 134.782 38.31 137.272 27.1219 129.111ZM116.407 93.9948C124.536 105.228 122.056 120.95 110.868 129.111C99.6798 137.272 84.0203 134.782 75.892 123.549C67.7632 112.316 66.8634 82.8374 72.8299 78.4853C79.5532 73.5812 108.279 82.7617 116.407 93.9948ZM1.23201 49.2779C5.50549 36.0729 19.6319 28.8462 32.7844 33.1368C45.9368 37.4274 66.8634 64.8158 62.0982 72.2607C57.1708 79.959 30.4611 85.2475 17.3087 80.9568C4.15631 76.6662 -3.04147 62.4834 1.23201 49.2779ZM105.107 33.1368C118.26 28.8462 132.386 36.0729 136.66 49.2779C140.933 62.4834 133.735 76.6662 120.583 80.9568C107.43 85.2475 77.2813 76.4227 75.892 72.2607C72.8299 63.0873 91.955 37.4274 105.107 33.1368Z"
            fill="white" />
        <circle cx="68.283" cy="72.261" r="25.8548" fill="#FDFFBC" />
        <path fill-rule="evenodd" clip-rule="evenodd"
            d="M861.953 845.744C850.932 854.097 835.198 851.899 826.811 840.833C818.424 829.768 819.097 796.897 822.802 794.089C826.506 791.281 858.336 799.517 866.723 810.583C875.11 821.648 872.974 837.39 861.953 845.744ZM817.303 717.58C831.149 717.326 842.622 728.357 842.929 742.22C843.237 756.082 821.766 781.372 816.211 781.932C810.554 779.888 793.095 757.001 792.788 743.139C792.481 729.277 803.457 717.834 817.303 717.58ZM767.358 799.498C754.095 795.456 746.574 781.428 750.561 768.166C754.548 754.904 768.532 747.429 781.795 751.471C795.058 755.514 813.582 778.463 811.456 785.536C809.06 793.505 780.621 803.541 767.358 799.498ZM886.158 765.564C890.729 778.669 883.836 792.962 870.763 797.487C857.689 802.012 824.468 792.826 823.768 784.014C823.045 774.902 841.137 754.554 854.211 750.029C867.284 745.504 881.587 752.459 886.158 765.564ZM813.125 841.173C805.234 852.537 789.611 855.311 778.229 847.369C766.847 839.426 764.016 823.775 771.906 812.411C779.796 801.047 809.154 789.868 812.775 792.346C820.757 797.807 821.015 829.809 813.125 841.173Z"
            fill="white" />
        <circle cx="818.839" cy="787.75" r="25.8548" transform="rotate(142.84 818.839 787.75)" fill="#FDFFBC" />
    </g> -->


    <g transform="translate(180, 130)">
        <g transform="translate(-140 -100)">
            <path
                d="M785.9 275.626C725.097 247.898 669.212 239.882 661.077 257.721L611.495 366.449C635.241 404.755 712.524 478.465 831.681 466.859L881.263 358.13C889.398 340.292 846.702 303.353 785.9 275.626Z"
                fill="#000000" stroke="black" stroke-width="8" />
            <path
                d="M881.497 358.237C873.362 376.076 817.477 368.06 756.674 340.332C695.871 312.605 653.176 275.666 661.311 257.827C669.445 239.989 725.33 248.005 786.133 275.732C846.936 303.46 889.632 340.398 881.497 358.237Z"
                fill="black" />
            <path
                d="M168.509 667.263C175.832 606.857 230.421 582.109 256.8 577.286C290.206 612.486 334.446 699.85 244.153 767.703C232.038 760.529 159.354 742.771 168.509 667.263Z"
                fill="#FFFFFF" stroke="black" stroke-width="8" />
            <path
                d="M604.34 791.275C737.081 797.037 736.069 677.143 736.069 677.143C698.338 671.111 619.168 685.492 604.34 791.275Z"
                fill="#FFFFFF" stroke="black" stroke-width="8" />
            <path
                d="M256.592 577.74L474.708 564.611C504.256 562.832 530.407 544.882 542.689 517.949L611.728 366.555C635.475 404.861 712.757 478.571 831.914 466.965L735.861 677.597C698.13 671.565 618.96 685.946 604.133 791.729C471.392 785.967 253.638 773.896 243.946 768.157C334.238 700.305 289.999 612.941 256.592 577.74Z"
                fill="#D9D9D9" stroke="black" stroke-width="8" />
        </g>
        <g transform="translate(590, 250)">
            <path
                d="M29.7081 93.5393C40.2096 98.6588 52.7676 95.2633 63.0806 89.1762C73.5261 83.0109 82.9144 73.3983 87.5508 63.8877C96.9893 44.5267 88.9456 21.1801 69.5846 11.7416C50.2236 2.30309 26.877 10.3469 17.4385 29.7079C12.8021 39.2185 11.0122 52.5353 12.5893 64.5616C14.1464 76.4354 19.2067 88.4199 29.7081 93.5393Z"
                fill="#B4E847" stroke="black" stroke-width="8" />
            <ellipse cx="37.7803" cy="43.6872" rx="12.5" ry="9.5" transform="rotate(74.2525 37.7803 43.6872)" />
            <ellipse rx="12.5" ry="9.5" transform="matrix(-0.925382 0.379036 0.379036 0.925382 64.7465 56.8328)" />
            <circle cx="38.1128" cy="39.7865" r="2" transform="rotate(25.9893 38.1128 39.7865)" fill="#D9D9D9" />
            <circle cx="63.2807" cy="52.056" r="2" transform="rotate(25.9893 63.2807 52.056)" fill="#D9D9D9" />
            <circle cx="41.1855" cy="65.1851" r="1.74906" transform="rotate(17.0548 41.1855 65.1851)" />
            <circle cx="46.7598" cy="66.8951" r="1.74906" transform="rotate(17.0548 46.7598 66.8951)" />
        </g>
    </g>
    <g transform="translate(225, 300)">
        <path
            d="M74.5637 308.897L292.679 295.768C322.227 293.989 348.379 276.04 360.661 249.106L429.699 97.7126C453.446 136.018 530.729 209.728 649.886 198.122L553.833 408.755C516.101 402.722 436.932 417.103 422.104 522.886C289.363 517.124 71.6097 505.053 61.9172 499.314C152.21 431.462 107.97 344.098 74.5637 308.897Z"
            stroke="black" fill-opacity="0" stroke-width="8" />
        <path
            d="M428.496 100L410.996 133.5C478.196 225.9 585.663 240.667 630.996 236.5L648.496 198.5C532.096 209.3 453.329 137.333 428.496 100Z"
            fill="#FF8A01" stroke="black" />
        <path
            d="M391.996 178L374.496 217.5C441.696 309.9 545.163 327.167 590.496 323L611.996 276.5C495.596 287.3 416.829 215.333 391.996 178Z"
            fill="#B4E847" stroke="black" />
        <path
            d="M370.996 221L353.496 260.5C420.696 352.9 524.663 370.667 569.996 366.5L590.996 319.5C474.596 330.3 395.829 258.333 370.996 221Z"
            fill="#98C1FF" stroke="black" />
        <path
            d="M412.033 133L393.496 178C460.837 276.381 565.067 281.936 610.496 277.5L632.496 237.875C515.851 249.374 436.919 172.75 412.033 133Z"
            fill="#FDED5E" stroke="black" />
        <path
            d="M74.0887 308.74L120.496 305.947C153.902 341.147 200.789 437.209 110.496 505.061C110.496 505.061 71.1348 504.896 61.4422 499.157C151.735 431.305 107.495 343.941 74.0887 308.74Z"
            fill="#FB4A4A" />
        <path
            d="M122.772 306.23L170.872 303.335C205.497 339.819 254.093 439.385 160.507 509.713C160.507 509.713 119.71 509.542 109.664 503.594C203.25 433.266 157.396 342.715 122.772 306.23Z"
            fill="#FF8A01" />
        <path
            d="M176.287 306.556L224.387 303.66C259.012 340.145 307.609 439.711 214.023 510.038C214.023 510.038 173.225 509.867 163.179 503.919C256.765 433.591 210.912 343.04 176.287 306.556Z"
            fill="#FDED5E" />
        <path
            d="M220.921 295.366L274.496 292.141C313.062 332.778 373.394 440.453 269.155 518.786C269.155 518.786 223.714 518.595 212.524 511.97C316.763 433.637 259.487 336.004 220.921 295.366Z"
            fill="#B4E847" />
        <path
            d="M280.743 296.895L322.996 288C378.996 322.5 413.496 458 328.978 520.315C328.978 520.315 283.537 520.125 272.347 513.499C376.586 435.166 319.309 337.533 280.743 296.895Z"
            fill="#98C1FF" />
        <path
            d="M412.604 134C436.351 172.305 513.634 246.015 632.79 234.409L553.357 408.597C515.626 402.565 436.456 416.946 421.629 522.729C288.888 516.967 71.1342 504.896 61.4417 499.157C151.734 431.305 107.494 343.941 74.0882 308.74L326.496 291C368.496 317.5 421.629 451.5 334.996 518.659M392.995 177C416.742 215.305 494.025 289.015 613.182 277.409M374.496 217.568C398.242 255.874 473.007 335.106 592.163 323.5M353.55 263.5C377.296 301.805 454.579 375.515 573.736 363.909M120.496 305.947C153.902 341.147 200.788 437.209 110.496 505.061M172.996 302.786C206.402 337.987 255.288 441.145 164.996 508.998M220.496 298.45C265.496 334.781 306.788 444.358 216.496 512.21M275.996 294.549C320.996 330.881 366.288 447.729 275.996 515.582"
            stroke="black" fill-opacity="0" stroke-width="8" />
    </g>
    <!-- <g transform="translate(275, 388)">
        <path
            d="M43.5928 249.741L261.708 236.611C291.257 234.833 317.408 216.883 329.69 189.949L398.729 38.556M58.8361 291.5L286.729 281.5C316.278 279.722 340.718 246.674 353.001 219.741L421.001 62.5002M60.348 330L300.501 330C348.501 323.5 355.851 297.934 368.133 271L455.024 80.3154M43.5928 373.394L329.69 382.5C359.239 380.722 381.501 362 404.001 311L499.862 96.5002M546.404 108.966L455.024 322.233M7.94603 410.158C17.6386 415.896 235.392 427.967 368.133 433.73C382.961 327.947 462.13 313.566 499.862 319.598L595.915 108.966C476.758 120.572 399.475 46.8616 375.728 8.5558L306.755 159.805C294.438 186.815 268.178 204.783 238.542 206.481L22.1524 218.877C21.3025 218.925 20.8735 219.925 21.4492 220.552C54.669 256.732 96.9391 343.281 7.94603 410.158Z"
            stroke="#000" fill-opacity="0" stroke-width="8" />
    </g> -->
</svg>